<?xml version="1.0" encoding="utf-8"?>
<!-- Generator: Adobe Illustrator 15.0.0, SVG Export Plug-In . SVG Version: 6.00 Build 0)  -->
<!DOCTYPE svg PUBLIC "-//W3C//DTD SVG 1.1//EN" "http://www.w3.org/Graphics/SVG/1.1/DTD/svg11.dtd">
<svg version="1.1" id="Layer_1" xmlns="http://www.w3.org/2000/svg" xmlns:xlink="http://www.w3.org/1999/xlink" x="0px" y="0px"
	 width="744.094px" height="1052.363px" viewBox="0 0 744.094 1052.363" enable-background="new 0 0 744.094 1052.363"
	 xml:space="preserve">
<title>Layer 1</title>
<path id="path3290" fill="#1F9F31" d="M329.349,259.454h10.539c59.114,0.118,93.027,56.405,93.264,94.5
	c-0.236,7.418-2.062,13.836-10.422,13.66c-17.723,0.177-11.423-28.379-26.024-52.578c-6.889-11.952-29.086-33.561-54.403-33.384
	h-9.303c-13.542-0.177-39.095,7.654-56.229,33.384c-21.372,31.088-7.359,53.874-25.317,53.756
	c-2.708,0.118-10.657-0.707-10.539-13.542C241.68,296.782,295.318,259.571,329.349,259.454"/>
<path id="path3292" fill="#1F9F31" d="M337.357,582.753c22.197,0.236,39.33-22.256,39.565-37.74v-32.148
	c-0.235-65.826,68.888-91.732,68.652-157.617c0.235-61.705-55.522-108.336-108.218-108.218
	c-43.688-0.118-73.479,28.026-84.726,42.628c-33.796,41.804-14.366,81.664-38.271,81.664c-6.83,0-13.483-3.827-13.602-17.369
	c-1.06-65.354,52.932-134.654,137.893-134.772c68.534,0.118,135.891,54.756,135.891,138.54c0,77.601-67.945,93.793-67.945,161.974
	v29.085c0,29.91-26.672,64.119-70.477,64.295c-1.59-0.471-3.475-1.061-5.535-1.295c-8.066-2.414-13.659-10.834-11.717-19.135
	c2.297-7.184,8.95-8.951,17.958-9.893H337.357z"/>
</svg>
